<svg version="1.1" id="Layer_1" xmlns="http://www.w3.org/2000/svg" xmlns:xlink="http://www.w3.org/1999/xlink" x="0px" y="0px"
	 width="100%" viewBox="0 0 1024 1024" enable-background="new 0 0 1024 1024" xml:space="preserve">
<path fill="#ffffff" opacity="1.000000" stroke="none"
	d="
M1025.000000,560.531372
	C1008.321533,566.396729 991.144592,569.370117 973.780823,571.323547
	C968.483643,571.919434 965.844177,573.856018 965.023438,579.742981
	C961.965271,601.677429 956.135254,623.037415 950.032654,644.288391
	C948.725464,648.840454 949.842651,650.908752 953.964783,652.715393
	C969.202332,659.393372 984.460449,666.063416 998.630737,674.898987
	C1000.463928,676.041992 1002.294006,677.215088 1003.991821,678.544922
	C1008.577942,682.136902 1009.385315,685.854065 1007.215027,691.340332
	C998.745239,712.750977 987.843323,732.966187 976.967590,753.198181
	C973.669006,759.334351 970.640320,765.620850 967.194763,771.671387
	C960.973816,782.595581 956.842651,784.105957 944.265747,781.729980
	C927.710266,778.602356 913.257141,770.989380 899.488281,761.717224
	C893.403503,757.619690 892.322021,757.726562 888.073792,764.028503
	C877.919983,779.091309 866.683044,793.307922 854.831970,807.043091
	C847.321838,815.747192 839.459595,824.157349 830.495544,831.395752
	C826.820312,834.363403 825.657227,837.021667 828.236145,841.499329
	C836.201660,855.329346 844.150513,869.184021 850.865784,883.689392
	C852.261475,886.704285 853.788147,889.695801 854.799805,892.844177
	C857.677002,901.797974 856.516479,904.863953 849.129883,910.846680
	C834.869812,922.396790 818.958618,931.545227 804.024292,942.105652
	C793.811279,949.327637 782.540344,954.772644 772.211914,961.804565
	C762.983521,968.087463 754.555664,968.258911 748.832275,961.864197
	C744.857239,957.422974 740.417236,953.398071 736.791321,948.608459
	C728.658203,937.865356 720.268799,927.316589 712.070557,916.622131
	C709.865906,913.746094 707.950562,913.519226 704.544556,915.243835
	C679.203796,928.074646 652.509399,937.185669 624.784302,943.279053
	C616.833130,945.026611 608.851929,946.665283 600.835510,948.075256
	C597.576294,948.648438 596.477600,950.192810 596.205383,953.374268
	C594.648682,971.566528 593.174011,989.794861 588.505798,1007.532166
	C585.708008,1018.162170 582.561951,1021.025635 571.793640,1021.119080
	C539.632874,1021.398193 507.467926,1021.341797 475.305603,1021.198364
	C468.596710,1021.168396 465.141907,1016.513611 462.760681,1010.695740
	C459.308411,1002.261169 458.172363,993.354187 457.040924,984.458557
	C455.761932,974.402832 454.536224,964.321228 453.900726,954.212341
	C453.656097,950.320984 452.137177,948.894104 448.755005,948.410095
	C434.737122,946.404053 421.013885,942.996948 407.416962,939.174744
	C386.074402,933.175171 365.190460,925.790344 345.424103,915.679810
	C340.648346,913.237061 338.323395,914.594727 335.612640,918.191040
	C326.801910,929.880249 317.829132,941.447083 308.970612,953.100525
	C304.668427,958.760132 298.225189,961.993958 293.398285,967.056763
	C291.795319,968.738098 290.009216,967.774963 288.336914,966.967957
	C277.384552,961.683350 267.027924,955.312927 256.813049,948.795044
	C239.699814,937.875488 222.487015,927.073425 206.209335,914.898621
	C202.613251,912.208923 199.152115,909.332825 195.706100,906.450195
	C192.747452,903.975281 193.660568,900.675354 194.275177,897.635193
	C195.871964,889.736755 199.086136,882.450806 202.913284,875.384216
	C209.408585,863.390930 215.738739,851.308350 222.185654,839.288696
	C223.292221,837.225647 223.896713,835.760437 221.541550,833.776428
	C206.486572,821.094177 193.088303,806.794434 180.924286,791.325562
	C173.203964,781.507690 165.708160,771.529602 158.809036,761.109680
	C157.915405,759.760071 156.672867,758.641418 155.307129,757.092773
	C146.388504,764.043945 137.074753,769.747498 127.100624,774.387573
	C115.928192,779.585205 104.020302,781.696472 91.956841,783.276001
	C89.006485,783.662231 87.313148,782.009277 86.022858,779.646667
	C79.726418,768.117798 73.457092,756.573914 67.100052,745.078430
	C58.157757,728.908142 50.534885,712.089050 42.599434,695.424377
	C41.175934,692.435059 40.192963,689.238464 38.832996,686.215637
	C37.735611,683.776306 39.030735,682.626404 40.774647,681.298157
	C50.903336,673.583374 61.994545,667.563416 73.529694,662.269043
	C80.486061,659.076233 87.210548,655.339478 94.292160,652.471619
	C99.149246,650.504700 99.794739,647.769836 98.267540,643.266052
	C93.132202,628.121765 89.632286,612.533142 86.207016,596.939697
	C84.711670,590.132202 83.643867,583.230103 82.418686,576.364380
	C81.960777,573.798340 80.838882,572.435120 77.923500,572.066040
	C62.920631,570.166687 48.033592,567.570312 33.253010,564.318054
	C24.619221,562.418396 16.489599,558.977051 8.002194,556.659180
	C5.732835,556.039429 5.025211,554.197327 4.952914,552.022156
	C4.106927,526.568909 2.759015,501.102386 4.677433,475.657837
	C5.864326,459.915710 6.133424,459.767303 20.763746,455.897919
	C39.590084,450.918762 58.692490,447.223450 78.028786,444.882324
	C81.526581,444.458832 82.340347,442.638977 82.756050,439.686157
	C85.052055,423.377197 88.436035,407.282501 92.656059,391.366791
	C94.275330,385.259735 95.750496,379.081238 97.910835,373.161377
	C99.652756,368.388123 97.828522,366.015106 93.827385,364.140411
	C84.790962,359.906281 75.845734,355.474365 66.765671,351.337433
	C58.549957,347.594360 51.074734,342.569366 43.274265,338.116211
	C38.650620,335.476654 39.231899,330.807953 40.232803,326.488007
	C41.861877,319.456757 45.540432,313.240326 48.559578,306.774353
	C57.363640,287.919128 67.194321,269.591370 77.135368,251.318665
	C79.278214,247.379898 80.787460,243.099152 82.880943,239.130157
	C85.825485,233.547638 90.621368,230.707291 96.907730,231.833817
	C107.704987,233.768692 118.528084,235.716812 128.607010,240.422226
	C134.831863,243.328339 140.332520,247.357056 145.989731,251.153763
	C148.325134,252.721115 150.438675,254.602631 153.540726,254.675186
	C156.418106,254.742508 158.180420,253.943100 159.985504,251.289200
	C165.403458,243.323517 171.381271,235.735916 177.205399,228.049866
	C185.746078,216.778809 195.097794,206.208618 204.800949,195.925049
	C208.024948,192.508194 211.626648,189.567078 215.226242,186.649185
	C217.909485,184.474075 219.462799,181.545212 221.676636,179.092224
	C223.458725,177.117630 221.784607,175.751282 221.026672,174.197464
	C212.564301,156.848999 202.083038,140.526321 195.027802,122.452568
	C191.675690,113.865349 191.767929,113.538605 199.065445,107.480560
	C211.410095,97.232628 225.039627,88.899147 238.442596,80.207077
	C252.524750,71.074577 266.780823,62.256245 281.480774,54.125084
	C288.673553,50.146465 294.552673,51.028873 300.635651,56.135887
	C313.669281,67.078400 323.152802,81.014114 333.261322,94.401672
	C339.219757,102.292931 339.006042,102.641930 347.830688,98.645782
	C375.972900,85.901924 405.120300,76.299904 435.436890,70.305649
	C440.325806,69.339005 445.232483,68.413513 450.169342,67.758293
	C452.655457,67.428322 453.501526,66.358940 453.738800,63.948555
	C455.008820,51.050152 455.901184,38.118206 457.670868,25.262045
	C458.835419,16.801958 460.763824,8.742573 465.844666,1.312657
	C505.354218,1.000000 544.708435,1.000000 584.600098,1.375719
	C586.827942,7.142918 588.844910,12.457032 590.144531,17.941137
	C593.373108,31.564999 594.505737,45.485130 595.346436,59.426960
	C595.786255,66.721985 596.667053,67.572350 603.571533,68.677025
	C638.950623,74.337479 672.783997,84.969559 704.944031,100.755341
	C708.572388,102.536316 710.198120,102.048576 712.648254,98.954422
	C723.475708,85.280891 734.009888,71.355881 745.855835,58.512737
	C750.300049,53.694427 755.629517,50.568436 762.213318,52.035744
	C767.525513,53.219646 772.597046,55.490391 777.282104,58.509769
	C791.823792,67.881477 806.914062,76.386215 821.128357,86.279663
	C831.764954,93.682915 842.926880,100.349869 852.692078,108.969147
	C856.419006,112.258736 857.791626,115.733643 855.846436,120.872681
	C851.647400,131.966278 845.889099,142.272217 840.374023,152.674805
	C836.276733,160.403137 832.795471,168.591644 826.800110,175.217499
	C825.012695,177.192795 825.901428,178.543259 827.669800,180.172821
	C851.878296,202.481888 872.300354,228.031036 891.287476,254.800247
	C892.030396,255.847702 892.584534,257.189240 894.449036,257.426666
	C895.185303,256.865631 896.114807,256.209686 896.987183,255.484955
	C914.129883,241.244339 933.221313,232.198410 956.097900,232.579926
	C960.223633,232.648743 962.541687,234.070724 964.329956,237.542267
	C969.126953,246.854675 974.190491,256.029877 978.980103,265.345978
	C989.246033,285.313416 1000.021240,305.031738 1007.926147,326.141510
	C1009.858276,331.301239 1008.478699,334.717346 1004.473938,337.861115
	C999.454773,341.801117 993.629150,344.333435 988.120789,347.390900
	C976.917114,353.609650 965.404724,359.245728 953.616211,364.289734
	C949.385742,366.099854 948.027039,368.748108 949.691833,373.357483
	C951.889893,379.443542 953.671875,385.702087 955.266235,391.979584
	C959.275208,407.763885 963.064697,423.608612 965.480469,439.730408
	C966.143372,444.154449 968.178650,445.556183 972.690552,445.883881
	C990.498535,447.177246 1007.819824,451.291687 1025.000000,456.000000
	C1025.000000,490.687561 1025.000000,525.375122 1025.000000,560.531372
M209.038635,240.543686
	C204.122055,246.828339 199.230881,253.133057 194.284348,259.394043
	C176.964951,281.315796 162.641342,305.163116 150.778000,330.339050
	C136.281540,361.102997 125.415405,393.210785 118.777901,426.668427
	C115.314796,444.124878 112.528610,461.673615 111.371674,479.433350
	C110.365845,494.873627 110.216476,510.311371 110.916931,525.813110
	C111.646729,541.964294 113.445801,557.949036 115.974365,573.859070
	C119.238319,594.396179 123.828636,614.605530 130.779282,634.303284
	C138.538818,656.293274 146.865616,677.950439 157.942764,698.555420
	C175.215179,730.684509 196.170288,760.069031 220.553558,787.196472
	C242.148880,811.221924 266.339661,832.180664 292.641479,850.740112
	C309.234314,862.448669 326.713135,872.813171 345.001862,881.687256
	C367.355408,892.533691 390.584564,900.973450 414.460571,908.005310
	C445.474304,917.139404 477.077423,921.808411 509.214111,923.423706
	C525.839478,924.259399 542.429382,923.681946 559.062622,922.060791
	C583.460815,919.682922 607.478638,915.679260 631.058533,909.018005
	C655.757507,902.040527 679.843628,893.523071 702.949280,882.170532
	C725.281738,871.197998 746.471558,858.394104 766.358398,843.558472
	C786.647339,828.422729 805.496216,811.613525 822.768127,792.986755
	C841.396301,772.897156 858.378845,751.561157 872.887634,728.386169
	C888.092834,704.098999 900.825867,678.537964 911.146484,651.697693
	C926.956055,610.582336 935.444885,568.122925 936.674377,524.181580
	C937.153870,507.045166 937.455139,489.881256 935.701965,472.777039
	C934.431335,460.380585 933.291443,447.953979 930.910034,435.712097
	C926.904236,415.119720 921.796082,394.835938 914.946899,374.947418
	C906.847778,351.429077 896.817688,328.788513 884.827942,307.085907
	C875.670166,290.509521 865.118286,274.756073 854.043396,259.317139
	C841.555542,241.908585 826.876831,226.580795 811.987122,211.371750
	C799.500610,198.617462 785.524536,187.602142 771.498230,176.608765
	C756.516113,164.866348 740.558716,154.650299 724.091919,145.233978
	C702.532043,132.905273 679.925049,122.814293 656.518494,114.441162
	C633.582642,106.236435 610.094482,100.102119 586.091919,96.395905
	C561.122437,92.540382 536.001343,90.301704 510.578918,91.852592
	C496.821930,92.691833 483.051514,93.380814 469.450653,95.381424
	C435.080048,100.437195 401.765228,109.532341 369.735962,123.122726
	C343.775116,134.138214 319.033966,147.307541 295.609406,163.132004
	C276.780487,175.851913 259.248779,190.137512 242.517273,205.339996
	C230.731659,216.048553 219.715073,227.696045 209.038635,240.543686
z"/>
<path fill="#ffffff" opacity="1.000000" stroke="none"
	d="
M961.468628,1025.000000
	C961.940247,1024.688477 962.859680,1024.264526 963.824524,1024.085449
	C967.403381,1023.421204 970.993042,1025.018188 974.067017,1020.280701
	C976.668945,1016.270508 975.219849,1013.186646 975.294189,1009.731323
	C975.493164,1009.549194 975.611023,1009.344482 975.739868,1009.337402
	C990.991882,1008.492737 1006.326782,1006.760864 1021.020264,1012.834656
	C1022.528259,1013.458008 1023.634644,1014.410706 1024.798340,1012.181274
	C1025.000000,1016.308533 1025.000000,1020.617126 1025.000000,1025.000000
	C1003.979187,1025.000000 982.958252,1025.000000 961.468628,1025.000000
z"/>
<path fill="#ffffff" opacity="1.000000" stroke="none"
	d="
M951.137695,1011.506348
	C947.996460,1012.085999 947.555481,1014.894348 945.847290,1017.320618
	C944.873840,1014.332825 944.348145,1011.902344 945.935242,1009.840637
	C947.144287,1008.270020 949.235962,1008.662048 950.984924,1009.153992
	C952.272278,1009.516052 952.317810,1010.401550 951.137695,1011.506348
z"/>
<path fill="#ffffff" opacity="1.000000" stroke="none"
	d="
M376.253601,452.975647
	C372.591949,450.998566 372.552124,448.338287 373.566650,445.100342
	C376.433594,435.950043 373.177216,432.598541 363.428375,433.682495
	C353.892059,434.742859 345.057373,438.318481 335.859344,440.565521
	C332.951050,441.275970 331.853394,443.282867 332.243347,446.202423
	C333.014465,451.975769 333.423004,457.705994 332.344971,463.544067
	C331.136414,470.089203 328.746429,475.635132 322.490479,478.824707
	C317.455292,481.391876 312.701996,484.629700 307.204926,486.128784
	C299.535675,488.220184 292.043915,487.314270 284.762238,483.487549
	C277.863098,491.270111 271.870178,499.378601 265.859192,508.735626
	C271.736542,510.855225 277.027710,513.078003 282.509857,514.623169
	C285.831787,515.559448 287.213287,517.075562 287.195557,520.493164
	C287.137573,531.657349 287.153351,542.824707 287.375946,553.986084
	C287.444183,557.407654 286.045135,559.109314 283.000031,560.273376
	C276.874298,562.615051 271.880005,566.774414 266.563507,570.860352
	C270.356659,576.506470 274.026917,581.969666 277.995361,587.876709
	C283.510864,584.236755 288.918488,581.030396 293.901398,577.262329
	C297.738922,574.360474 300.970337,574.323975 304.443176,577.486877
	C307.762451,580.509888 311.174194,583.432190 314.467682,586.482605
	C320.192993,591.785095 326.813599,594.598450 334.714783,594.789673
	C343.478241,595.001770 351.996704,595.983643 357.771545,604.111938
	C360.683228,608.210266 362.462860,612.526001 362.564545,617.481201
	C362.635406,620.935059 360.952850,622.632080 357.260071,622.282410
	C350.985260,621.688171 346.537384,618.294922 344.123108,612.841553
	C341.617767,607.182434 337.972046,604.461731 331.698486,603.863159
	C320.194672,602.765564 311.528351,595.603882 303.094757,588.559448
	C299.982239,585.959534 297.977997,585.454956 294.654663,588.065002
	C289.425781,592.171692 283.599518,595.448975 277.682648,598.531555
	C275.631073,599.600403 273.794678,600.067078 272.569824,597.749756
	C268.578430,590.198303 262.687683,583.958984 258.222809,576.753052
	C253.807343,569.626953 255.151733,565.408203 262.607697,560.652222
	C267.191833,557.728088 272.283661,555.508057 275.791016,550.997498
	C277.002960,549.438965 277.773071,548.027527 277.685394,546.087341
	C277.617767,544.590637 277.532867,543.072266 277.700256,541.591187
	C278.749786,532.303650 277.892395,524.247742 266.302155,522.419434
	C264.905396,522.199097 263.612671,521.128540 262.340515,520.340881
	C255.461502,516.081665 255.468903,516.069580 258.011597,508.437195
	C258.064209,508.279175 258.189819,508.118164 258.175201,507.968933
	C257.323212,499.271851 264.025543,494.998688 268.777802,489.475494
	C272.786194,484.816864 277.525482,480.620178 277.546722,473.423004
	C277.559479,469.101440 282.205261,468.001251 286.304718,470.888580
	C296.240662,477.886597 307.488220,477.393158 316.822235,469.549683
	C322.995239,464.362366 324.573730,454.874237 320.886597,445.118500
	C318.405090,438.552673 318.918701,437.428894 325.485046,434.883667
	C337.937897,430.056671 350.792999,426.674957 363.902863,424.228302
	C368.408478,423.387421 372.906677,423.864258 377.251892,425.110596
	C382.319946,426.564270 385.888580,433.797333 384.803284,439.945648
	C384.518066,441.561249 383.697723,443.098602 384.279999,445.455933
	C396.037903,448.367096 408.537079,447.738678 420.304779,451.230560
	C420.912476,449.048309 419.994507,448.347961 419.520721,447.527924
	C417.481506,443.998138 418.160583,441.711060 422.192078,440.278381
	C427.704651,438.319336 433.335297,436.907745 439.060303,435.791107
	C442.444519,435.131042 445.237335,436.139893 447.747894,438.439728
	C454.180817,444.332855 462.718231,446.920746 469.380554,452.961639
	C472.092407,448.602692 470.653717,444.914062 469.482574,441.420532
	C462.966736,421.983063 457.793457,402.193970 454.417664,381.987549
	C448.563568,346.946564 447.967224,312.073944 459.528046,277.881470
	C469.355408,248.815933 485.122223,223.547470 507.970123,202.831421
	C536.833191,176.661560 570.494080,161.081955 609.237732,156.651764
	C634.332825,153.782257 658.986511,156.823532 683.508179,162.138657
	C712.250061,168.368546 738.578186,179.988083 762.021790,197.661423
	C783.904236,214.157837 802.062012,234.244568 815.374512,258.284332
	C830.656311,285.880310 840.517639,315.386292 839.880798,347.169769
	C839.397644,371.279694 835.140625,394.939819 825.721436,417.606628
	C816.869751,438.907684 804.835815,457.731262 787.469788,472.850739
	C774.912354,483.783539 760.408752,491.463165 744.101013,495.377869
	C740.021179,496.357208 736.446838,497.515106 733.319885,500.895172
	C730.591003,503.844971 726.273804,505.164978 721.940613,505.308044
	C711.298096,505.659485 700.614563,505.574921 690.023682,506.519287
	C667.630615,508.515961 645.983582,504.293396 624.335632,499.655090
	C622.548706,499.272186 620.756165,498.911407 618.955933,498.599426
	C618.690735,498.553436 618.368408,498.837036 617.554688,499.197540
	C619.635681,505.540771 621.760986,511.929993 623.828308,518.337891
	C629.354004,535.464905 633.764832,552.867188 636.155396,570.720398
	C636.536682,573.567810 638.997253,574.689575 639.965210,577.632690
	C644.972534,573.938599 649.097717,569.615723 654.060791,566.354248
	C660.086243,562.394714 666.268250,558.709961 673.093689,556.530151
	C682.359558,553.570984 691.385925,553.258789 698.971313,561.151611
	C701.071838,563.337280 702.259705,565.829773 702.901611,568.517395
	C705.607910,579.848328 705.548035,590.690430 696.332703,599.549988
	C690.681519,604.983032 683.278687,606.276367 676.124634,606.775146
	C667.084961,607.405518 657.941406,606.396851 648.841553,606.358459
	C640.065369,606.321472 637.899597,609.357239 638.497986,618.100403
	C639.887634,638.402466 639.527161,658.672119 635.971008,678.790466
	C633.156677,694.712402 629.231140,710.332092 622.924744,725.257751
	C611.510315,752.272339 593.615845,773.824097 568.474670,789.154968
	C565.083862,791.222656 565.012878,791.106323 562.833008,793.959290
	C564.681824,795.280579 566.408203,793.975037 567.978638,793.597046
	C574.437256,792.042358 580.575684,793.065002 586.479675,795.679138
	C594.123413,799.063599 595.240967,802.050110 592.059692,809.500549
	C599.188843,816.698364 594.539551,823.885620 586.963867,825.142212
	C583.687988,825.685608 580.475769,826.643127 577.092285,826.309021
	C575.238220,826.125977 573.449158,826.407227 571.754456,827.261414
	C557.736633,834.326782 542.608826,836.044373 527.234070,836.139771
	C518.149292,836.196167 509.578827,829.712341 507.435944,822.054321
	C506.446564,818.518372 507.879974,815.148499 507.763916,811.656860
	C507.506714,803.921753 504.986420,801.056335 497.320526,802.452637
	C486.292755,804.461243 475.218628,804.911316 464.080597,805.427795
	C452.067963,805.984802 440.151337,805.004578 428.258118,803.966248
	C403.429779,801.798401 379.444794,795.652527 355.966736,787.431091
	C326.623810,777.155823 299.739349,762.223267 275.445465,742.998901
	C254.564713,726.475525 236.711807,706.900024 223.658295,683.491516
	C215.991516,669.742920 209.975143,655.286743 212.628799,638.855957
	C213.016602,636.454712 212.913055,633.590393 216.068466,632.879395
	C219.342972,632.141418 220.734085,634.629639 222.305084,636.843628
	C240.754272,662.843628 264.819397,680.700745 296.463837,687.125427
	C321.811707,692.271729 345.700928,686.898987 368.707672,676.122314
	C377.033417,672.222473 384.707581,667.290955 392.284546,662.110168
	C397.341522,658.652344 398.449829,654.228210 397.344208,648.716736
	C396.658020,645.296082 396.835266,642.040466 399.374817,639.364685
	C402.846130,635.707214 407.332977,635.839722 411.015198,639.972717
	C412.928223,642.119995 414.603790,643.177551 416.558868,640.452332
	C421.907379,632.996948 428.807343,626.915222 434.451630,619.674683
	C446.090546,604.744141 455.492706,588.550049 463.358643,571.439087
	C471.666199,553.367432 477.642639,534.561829 480.364227,514.758850
	C481.099762,509.406860 480.758087,505.674622 474.850647,503.382874
	C466.480011,500.135559 462.198608,492.850372 459.489807,484.733246
	C458.233368,480.968292 459.739960,477.175873 460.948853,473.560974
	C461.738251,471.200439 462.449829,468.637848 463.915466,466.713531
	C467.813995,461.595093 464.996948,459.296997 460.669891,456.938629
	C455.705444,454.232971 450.927521,451.173737 446.147705,448.143280
	C439.682648,444.044312 434.796814,444.424255 428.423615,449.869049
	C430.052277,452.801697 432.597382,456.069855 429.789307,459.332611
	C426.765839,462.845581 422.435760,462.161591 418.627563,460.860046
	C408.902985,457.536438 398.891937,456.509735 388.713867,455.950226
	C384.643951,455.726532 380.650421,454.114288 376.253601,452.975647
M467.031891,402.603851
	C470.929749,419.638458 476.173279,436.321259 481.765289,452.818542
	C493.372528,487.061646 490.758698,520.681946 479.119568,554.104675
	C472.365509,573.499512 463.010193,591.658813 452.047211,609.056885
	C442.041260,624.936218 429.664246,638.858948 416.438232,651.890259
	C404.961823,663.197754 391.849030,672.730896 377.475189,680.368164
	C352.547241,693.613098 326.302063,699.847778 298.089539,695.562317
	C270.998199,691.447144 248.899826,677.919250 229.947510,658.689453
	C227.245773,655.948120 224.721054,653.032349 222.114395,650.197327
	C221.441971,655.305725 222.276077,659.519531 223.837372,663.566284
	C232.509399,686.043213 246.714157,704.767151 263.735199,721.444641
	C277.811523,735.236877 293.743713,746.605103 310.627167,756.798767
	C326.956726,766.657959 344.117889,774.572144 362.043945,780.878540
	C379.348724,786.966370 397.163116,791.039062 415.316681,793.730957
	C440.655457,797.488281 466.014771,798.193787 491.429810,794.731995
	C494.834351,794.268250 498.208527,793.442322 501.530365,791.833801
	C500.424866,786.653259 498.026031,782.322144 495.420532,778.091125
	C490.996826,770.907532 484.390198,765.700928 478.712860,759.648682
	C476.674744,757.475891 474.269623,754.645874 477.163666,751.858826
	C479.886749,749.236328 482.872467,751.178406 485.080963,753.331604
	C488.293091,756.463501 491.296417,759.817139 494.289215,763.165161
	C507.750702,778.224670 514.285522,796.211975 516.054016,816.035156
	C516.628906,822.478333 520.684448,827.477112 527.109680,827.460938
	C532.541321,827.447327 537.971497,826.863037 543.608521,826.518738
	C543.107483,823.742065 542.702332,821.044250 544.902466,819.319946
	C550.332031,815.064209 556.342346,811.825562 563.266296,810.817322
	C567.517700,810.198181 568.183167,810.656982 575.783386,816.357300
	C572.236450,810.209106 578.378052,809.438354 579.426575,806.191223
	C581.556030,806.292725 581.258667,809.240845 583.533325,808.885010
	C581.316650,803.893066 574.444519,799.873779 569.652588,801.523132
	C560.294006,804.744202 550.631104,807.569824 543.179749,814.696411
	C541.512146,816.291382 539.818359,817.570984 537.510681,815.860474
	C535.404907,814.299377 535.253479,812.101929 536.245667,810.036011
	C537.462097,807.503052 538.997070,805.094177 540.619995,802.790649
	C545.868774,795.340637 552.706726,788.912354 557.380188,781.285889
	C566.722351,766.040833 566.189941,749.324463 560.694153,732.654358
	C558.380432,725.636292 554.622864,719.350098 550.805298,713.086609
	C549.210815,710.470581 549.191223,708.021362 552.187561,706.261536
	C554.685791,704.794189 556.583679,705.448120 558.088684,707.836975
	C569.991455,726.730225 575.626587,746.871643 570.540161,769.226990
	C569.895081,772.062195 568.675354,774.872192 569.333252,778.421143
	C577.103271,773.300232 583.932251,767.449951 590.069641,761.012451
	C605.665344,744.654114 615.571106,725.022034 621.690247,703.374878
	C629.063965,677.289429 630.686951,650.622131 629.529053,623.722534
	C629.307373,618.571533 628.872498,613.439636 629.178040,608.287476
	C629.504822,602.777161 632.327637,599.686462 637.824158,598.232971
	C646.733032,595.877014 655.721863,597.389099 664.653931,596.851257
	C666.885132,596.716919 669.326904,597.573669 671.509216,595.516418
	C671.136536,590.606934 667.333313,587.374451 665.038330,583.481140
	C662.439026,579.071655 664.068481,574.689819 664.804871,570.161072
	C661.943970,570.434326 660.639038,571.828064 659.119385,572.790161
	C648.388184,579.584290 641.002563,590.269775 630.520325,597.371399
	C625.983215,600.445251 621.615967,603.768921 617.149902,606.948669
	C615.210815,608.329224 614.535461,609.938232 614.829041,612.472229
	C615.402832,617.425354 615.715454,622.453613 614.939331,627.428772
	C614.503235,630.224060 614.050110,633.367432 611.194763,634.693848
	C606.692627,636.785217 601.985046,638.441345 597.335083,640.204224
	C594.693237,641.205933 592.020569,640.760010 590.798157,638.219482
	C588.616028,633.684509 585.286499,633.125549 580.991333,634.268555
	C579.557190,634.650146 578.037781,634.711060 576.557312,634.918579
	C564.012878,636.676697 553.556396,632.414429 548.221680,622.473450
	C544.390869,615.334900 543.099915,607.572510 547.892029,600.182373
	C552.488403,593.094055 559.512024,594.347107 566.368774,595.401978
	C568.995361,595.806030 572.176575,597.241882 574.155640,596.271423
	C578.537170,594.123047 581.261475,595.718201 584.283508,598.424683
	C585.321106,599.353943 586.878052,600.206665 588.430359,599.300598
	C590.152527,598.295410 589.370605,596.735229 589.139587,595.274658
	C588.906799,593.802429 588.710266,592.290466 588.784973,590.810425
	C588.971497,587.118042 590.744995,584.251160 594.414917,583.483398
	C597.686707,582.798889 600.069641,584.814941 601.758606,587.536011
	C606.175476,594.651733 605.863770,597.691772 599.966248,605.393127
	C604.628967,604.413696 606.203735,600.904114 606.606628,596.461182
	C608.687439,596.852783 609.543701,599.002075 611.415771,598.505676
	C617.723022,596.833435 622.950745,593.210510 627.427185,588.710327
	C630.487915,585.633301 628.989441,581.336792 628.441528,577.679321
	C625.557129,558.424377 622.347656,539.191284 615.564819,520.850525
	C611.567139,510.040710 610.548706,497.938110 602.133667,488.937195
	C600.713623,487.418335 600.122681,485.190643 602.272339,483.670868
	C604.357422,482.196716 606.990723,481.983459 608.592224,484.109894
	C610.894836,487.167328 614.094360,488.503021 617.410706,489.401550
	C633.039490,493.636261 649.023193,495.732788 665.158081,496.741516
	C666.317627,496.814026 667.819885,497.452057 669.005005,494.952484
	C663.472656,494.063110 659.306702,489.958466 653.475647,490.209076
	C650.434570,490.339783 648.581238,488.626892 648.875793,485.630463
	C649.199158,482.342072 651.912903,482.619324 654.281372,482.963806
	C657.392090,483.416290 660.595154,484.792664 663.552429,484.360809
	C667.569702,483.774200 671.054810,484.275085 674.690308,485.807831
	C681.950500,488.868744 688.224060,493.600586 695.010559,497.457550
	C699.055115,499.756165 701.431702,499.116272 702.974854,495.325195
	C707.909119,483.203400 721.302979,479.584595 731.597595,487.703583
	C733.490479,489.196381 735.133301,489.625092 737.513123,488.992554
	C746.224060,486.677338 754.837097,483.651215 762.690369,479.597504
	C777.925537,471.733307 790.562317,460.245148 800.587524,446.272583
	C814.162903,427.352203 822.734131,406.199890 827.515625,383.432617
	C831.936218,362.384277 833.363831,341.208069 829.273315,320.033630
	C824.950439,297.656158 816.825073,276.713226 804.767883,257.172058
	C782.751831,221.490646 752.337280,196.013855 713.651489,180.292114
	C692.396362,171.654144 670.189270,167.142258 647.351257,164.959717
	C618.797119,162.230911 591.251831,165.665298 564.769104,176.663086
	C530.910645,190.723892 503.708069,213.025757 484.301178,244.175308
	C467.689941,270.837646 459.095825,300.138428 458.303467,331.631439
	C457.704590,355.435669 461.955231,378.652954 467.031891,402.603851
M581.625305,619.681763
	C581.570312,618.367065 581.090332,616.882935 581.534973,615.767395
	C583.308411,611.318176 580.692017,609.159485 577.633484,606.777832
	C572.394653,602.698425 566.110352,602.968750 560.123352,602.283630
	C554.996338,601.696838 552.421814,604.630371 552.646973,609.774353
	C553.018250,618.253906 558.651001,624.744385 567.103882,626.432800
	C574.090332,627.828308 580.139832,625.329468 581.625305,619.681763
M472.566589,474.102295
	C468.887054,484.405701 471.671753,491.873474 480.815552,494.814880
	C480.379669,485.352631 478.974640,476.319214 476.036316,466.329407
	C474.715179,469.308411 473.804016,471.362885 472.566589,474.102295
M717.050110,494.358704
	C715.600647,494.629578 714.122314,494.865723 714.001587,497.103882
	C717.449402,498.372894 720.410339,497.071716 723.759338,495.755432
	C721.690430,494.112244 719.722961,494.262421 717.050110,494.358704
z"/>
<path fill="#ffffff" opacity="1.000000" stroke="none"
	d="
M413.318787,509.170471
	C409.871216,506.321075 405.512695,505.615845 401.480164,504.144592
	C399.762421,503.517853 397.964966,503.058685 396.335266,502.256287
	C394.802643,501.501709 393.572021,500.250916 393.805969,498.318085
	C394.071381,496.125122 395.801788,495.332275 397.645111,494.942352
	C399.804993,494.485413 401.958649,494.842438 404.044281,495.537445
	C417.885162,500.149628 430.052216,507.357697 439.811157,518.387024
	C445.981476,525.360596 445.877747,529.662964 438.881989,535.699280
	C434.172089,539.763184 428.610382,542.470032 422.891663,544.804810
	C405.891510,551.745239 388.523254,557.585205 370.219482,559.753174
	C355.040924,561.551025 340.817261,559.308594 330.519470,546.358337
	C324.008698,538.170532 325.379944,523.848572 333.165771,517.376892
	C335.104797,515.765137 337.630829,513.068909 340.039612,515.261719
	C342.065277,517.105835 340.098389,519.953735 338.773499,522.017822
	C336.022339,526.304077 333.883087,530.692505 334.830261,536.006042
	C336.400299,544.813599 344.057709,547.097839 350.649200,549.485046
	C360.109894,552.911316 369.971558,551.027588 379.685333,549.174988
	C395.659485,546.128418 410.568207,539.981262 425.577332,534.062683
	C429.283569,532.601196 431.728271,529.742798 434.623505,527.093140
	C431.894135,521.617737 427.252289,518.411072 422.051514,514.861084
	C418.764069,512.739197 416.041443,510.954834 413.318787,509.170471
z"/>
<path fill="#ffffff" opacity="1.000000" stroke="none"
	d="
M412.878723,509.085632
	C416.041443,510.954834 418.764069,512.739197 421.727875,514.745483
	C423.835724,517.800842 426.926758,519.920349 427.152222,524.025330
	C423.492065,526.107117 420.057983,526.658569 417.552490,522.345276
	C414.558441,517.190857 410.032593,514.739075 404.292419,513.918091
	C402.407135,513.648438 399.913055,513.130920 400.276001,510.478363
	C400.568451,508.341156 402.818054,508.203369 404.629303,507.908234
	C407.348969,507.465057 409.860779,508.458282 412.878723,509.085632
z"/>
<path fill="#ffffff" opacity="1.000000" stroke="none"
	d="
M631.083374,301.929504
	C648.880310,294.815826 665.571838,296.342407 679.238770,309.377716
	C700.181824,329.352753 702.588257,358.763153 678.391602,379.324829
	C652.960632,400.935455 614.080444,387.482758 605.337708,354.983734
	C600.099243,335.511047 612.965881,309.787415 631.083374,301.929504
z"/>
<path fill="#ffffff" opacity="1.000000" stroke="none"
	d="
M774.431458,396.504272
	C778.841614,402.680573 777.099365,408.810242 771.153381,409.222931
	C767.932434,409.446472 765.243286,408.391571 763.695190,405.336029
	C762.327576,402.636749 762.933472,400.086578 764.740723,397.900513
	C767.336426,394.760590 770.569092,394.378967 774.431458,396.504272
z"/>
</svg>
